# xmcd
# 
# Track frame offsets:
#     150
#     15474
#     37215
#     52815
#     74091
#     92806
#     109147
#     135547
#     152112
#     170576
# 
# Disc length: 2514
# 
# Revision: 2
# Processed by: cddbd v1.5.2PL0 Copyright (c) Steve Scherf et al.
# Submitted via: fre:ac v1.0.31
# 
DISCID=8709d00a
DTITLE=Otto - The Moon 1111
DYEAR=2012
DGENRE=MPB
TTITLE0=Dia Claro
TTITLE1=Ela Falava
TTITLE2=A Noite Mais Linda Do Mundo (A Felicidade)
TTITLE3=Exu Parade
TTITLE4=The Moon 1111
TTITLE5=Selvagens Olhos, Nego!
TTITLE6=HDeus
TTITLE7=Miss Apple E Zé Pilantra
TTITLE8=O Que Dirá O Mundo
TTITLE9=DP
EXTD=
EXTT0=
EXTT1=
EXTT2=
EXTT3=
EXTT4=
EXTT5=
EXTT6=
EXTT7=
EXTT8=
EXTT9=
PLAYORDER=
